<svg width="64" height="23" viewBox="0 0 64 23" fill="none" xmlns="http://www.w3.org/2000/svg">
<path d="M9.528 18.336C7 18.336 4.912 17.496 3.264 15.816C1.616 14.136 0.792 12.064 0.792 9.6C0.792 7.12 1.616 5.048 3.264 3.384C4.912 1.704 7 0.863999 9.528 0.863999C11.048 0.863999 12.448 1.224 13.728 1.944C15.024 2.648 16.032 3.608 16.752 4.824L13.896 6.48C13.48 5.728 12.888 5.144 12.12 4.728C11.352 4.296 10.488 4.08 9.528 4.08C7.896 4.08 6.576 4.592 5.568 5.616C4.576 6.64 4.08 7.968 4.08 9.6C4.08 11.216 4.576 12.536 5.568 13.56C6.576 14.584 7.896 15.096 9.528 15.096C10.488 15.096 11.352 14.888 12.12 14.472C12.904 14.04 13.496 13.456 13.896 12.72L16.752 14.376C16.032 15.592 15.032 16.56 13.752 17.28C12.472 17.984 11.064 18.336 9.528 18.336ZM20.3661 4.56C19.8541 4.56 19.4061 4.376 19.0221 4.008C18.6541 3.624 18.4701 3.176 18.4701 2.664C18.4701 2.152 18.6541 1.704 19.0221 1.32C19.4061 0.935999 19.8541 0.743999 20.3661 0.743999C20.8941 0.743999 21.3421 0.935999 21.7101 1.32C22.0941 1.704 22.2861 2.152 22.2861 2.664C22.2861 3.176 22.0941 3.624 21.7101 4.008C21.3421 4.376 20.8941 4.56 20.3661 4.56ZM18.8301 18V6H21.9261V18H18.8301ZM31.6238 8.976H28.9118V13.968C28.9118 14.384 29.0158 14.688 29.2238 14.88C29.4318 15.072 29.7358 15.184 30.1358 15.216C30.5358 15.232 31.0318 15.224 31.6238 15.192V18C29.4958 18.24 27.9918 18.04 27.1118 17.4C26.2478 16.76 25.8158 15.616 25.8158 13.968V8.976H23.7278V6H25.8158V3.576L28.9118 2.64V6H31.6238V8.976ZM41.8884 6H45.2004L40.8324 18C40.2084 19.728 39.3764 20.976 38.3364 21.744C37.3124 22.528 36.0324 22.88 34.4964 22.8V19.92C35.3284 19.936 35.9844 19.76 36.4644 19.392C36.9604 19.024 37.3524 18.432 37.6404 17.616L32.7204 6H36.1044L39.2244 14.064L41.8884 6Z" fill="#2A3033"/>
<path d="M63.4978 9.6C63.4978 11.776 62.8098 13.664 61.4338 15.264L63.1618 17.064L60.8098 19.152L58.9858 17.256C57.6898 17.976 56.2818 18.336 54.7618 18.336C52.3458 18.336 50.2898 17.496 48.5938 15.816C46.8978 14.12 46.0498 12.048 46.0498 9.6C46.0498 7.152 46.8978 5.088 48.5938 3.408C50.2898 1.712 52.3458 0.863999 54.7618 0.863999C57.1778 0.863999 59.2338 1.712 60.9298 3.408C62.6418 5.088 63.4978 7.152 63.4978 9.6ZM54.7618 15.096C55.3858 15.096 56.0098 14.992 56.6338 14.784L53.8738 11.904L56.2258 9.816L59.1778 12.888C59.8498 11.928 60.1858 10.832 60.1858 9.6C60.1858 8 59.6658 6.68 58.6258 5.64C57.5858 4.6 56.2978 4.08 54.7618 4.08C53.2258 4.08 51.9378 4.6 50.8978 5.64C49.8578 6.68 49.3378 8 49.3378 9.6C49.3378 11.184 49.8578 12.496 50.8978 13.536C51.9378 14.576 53.2258 15.096 54.7618 15.096Z" fill="#2984F8"/>
</svg>
